<svg xmlns="http://www.w3.org/2000/svg" xmlns:xlink="http://www.w3.org/1999/xlink" viewBox="0 0 4096 4096"><defs><style>.a{fill:url(#a);}.b{fill:#303031;}.c{fill:none;stroke:#303031;stroke-linecap:round;stroke-linejoin:round;stroke-width:150px;}</style><linearGradient id="a" x1="2048" y1="4096" x2="2048" gradientUnits="userSpaceOnUse"><stop offset="0" stop-color="#8679b7"/><stop offset="0.5" stop-color="#9dd8f7"/></linearGradient></defs><circle class="a" cx="2048" cy="2048" r="2048"/><rect class="b" x="1507" y="2334" width="80" height="192" rx="39.99996"/><rect class="b" x="1632" y="2366" width="80" height="128" rx="39.99996"/><rect class="b" x="1757" y="2358" width="80" height="144" rx="39.99996"/><rect class="b" x="1882" y="2302" width="80" height="256" rx="39.99996"/><rect class="b" x="2007" y="2238" width="80" height="384" rx="39.99996"/><rect class="b" x="2132" y="2110" width="80" height="640" rx="39.99996"/><rect class="b" x="2257" y="1982" width="80" height="896" rx="39.99996"/><rect class="b" x="2382" y="2046" width="80" height="768" rx="39.99996"/><rect class="b" x="2507" y="2302" width="80" height="256" rx="39.99996"/><rect class="b" x="875" y="1662" width="448" height="1536" rx="223.99978"/><rect class="b" x="455" y="2014" width="288" height="832" rx="143.99986"/><rect class="b" x="2775" y="1662" width="448" height="1536" rx="223.99978"/><path class="c" d="M597,1834c0-800.35938,644.53036-1448,1441.04605-1448"/><path class="c" d="M3497,1834c0-800.35937-644.53036-1448-1441.046-1448"/><rect class="b" x="3353" y="2014" width="288" height="832" rx="143.99986"/></svg>