<svg xmlns="http://www.w3.org/2000/svg" viewBox="0 0 4076.15993 777.22699"><defs><style>.a{fill:#262626;}</style></defs><rect class="a" y="337.25423" width="46.51296" height="80.55596" rx="23.25646"/><rect class="a" x="58.13319" y="311.1513" width="46.51296" height="133.64306" rx="23.25646"/><rect class="a" x="116.26638" y="267.28463" width="46.51296" height="222.04092" rx="23.25646"/><rect class="a" x="179.15357" y="267.34845" width="46.51296" height="221.95303" rx="23.25646"/><rect class="a" x="237.64924" y="231.63291" width="46.51296" height="293.33853" rx="23.25646"/><rect class="a" x="295.47217" y="159.20137" width="46.51296" height="437.0641" rx="23.25646"/><rect class="a" x="358.94652" y="90.15981" width="46.51296" height="573.72806" rx="23.25646"/><rect class="a" x="413.87922" width="46.51296" height="756.62679" rx="23.25646"/><rect class="a" x="471.97297" y="159.20137" width="46.51296" height="436.91073" rx="23.25646"/><rect class="a" x="534.50668" y="231.74483" width="46.51296" height="293.14626" rx="23.25646"/><rect class="a" x="592.95218" y="267.19992" width="46.51296" height="222.12384" rx="23.25646"/><rect class="a" x="655.8238" y="338.82782" width="46.51296" height="78.88993" rx="23.25646"/><rect class="a" x="710.23534" y="313.97512" width="46.51296" height="130.77269" rx="23.25646"/><rect class="a" x="772.73417" y="338.60007" width="46.51296" height="78.88993" rx="23.25646"/><rect class="a" x="831.13936" y="267.36104" width="46.51296" height="221.8371" rx="23.25646"/><rect class="a" x="890.58789" y="231.74483" width="46.51296" height="293.51258" rx="23.25646"/><rect class="a" x="948.48796" y="160.52704" width="46.51296" height="436.9219" rx="23.25646"/><rect class="a" x="1005.11293" y="90.15981" width="46.51296" height="574.85647" rx="23.25646"/><rect class="a" x="1065.72515" y="158.56289" width="46.51296" height="436.9219" rx="23.25646"/><rect class="a" x="1124.40692" y="267.19992" width="46.51297" height="222.06203" rx="23.25646"/><rect class="a" x="1186.72502" y="313.97512" width="46.51297" height="127.52158" rx="23.25646"/><rect class="a" x="1245.13956" y="337.92409" width="46.51296" height="80.67075" rx="23.25646"/><rect class="a" x="1303.77418" y="267.19992" width="46.51296" height="221.18183" rx="23.25646"/><rect class="a" x="1366.60226" y="231.74483" width="46.51296" height="293.16093" rx="23.25646"/><rect class="a" x="1420.74203" y="251.90056" width="46.51296" height="250.24656" rx="23.25646"/><rect class="a" x="1483.64" y="158.5629" width="46.51296" height="436.9219" rx="23.25646"/><rect class="a" x="1541.97518" y="9.5365" width="46.51296" height="737.55535" rx="23.25646"/><rect class="a" x="1600.5833" y="36.71189" width="46.51297" height="682.26796" rx="23.25646"/><rect class="a" x="1663.44852" y="267.19992" width="46.51296" height="221.18184" rx="23.25646"/><rect class="a" x="1717.53023" y="338.50397" width="46.51296" height="80.67075" rx="23.25646"/><rect class="a" x="1780.47679" y="231.69958" width="46.51297" height="293.17623" rx="23.25646"/><rect class="a" x="1838.88346" y="159.56685" width="46.51296" height="436.58965" rx="23.25646"/><rect class="a" x="1901.51564" y="96.65528" width="46.51297" height="563.12635" rx="23.25646"/><rect class="a" x="1959.66527" y="89.55843" width="46.51296" height="575.45783" rx="23.25646"/><rect class="a" x="2014.47074" y="8.61081" width="46.51296" height="739.38883" rx="23.25646"/><rect class="a" x="2077.34598" y="90.44366" width="46.51297" height="576.62538" rx="23.25646"/><rect class="a" x="2135.42274" y="160.67168" width="46.51296" height="435.59596" rx="23.25646"/><rect class="a" x="2193.81986" y="189.81519" width="46.51296" height="378.04831" rx="23.25646"/><rect class="a" x="2252.95966" y="308.53211" width="46.51296" height="136.2939" rx="23.25646"/><rect class="a" x="2311.34337" y="268.19674" width="46.51296" height="221.09644" rx="23.25646"/><rect class="a" x="2374.24093" y="159.17599" width="46.51297" height="436.78127" rx="23.25646"/><rect class="a" x="2428.78257" y="8.15392" width="46.51297" height="740.31896" rx="23.25646"/><rect class="a" x="2490.73302" y="96.65529" width="46.51297" height="563.31613" rx="23.25646"/><rect class="a" x="2547.49787" y="31.85794" width="46.51296" height="668.51515" rx="23.25646"/><rect class="a" x="2612.80373" y="96.65525" width="46.51296" height="558.61958" rx="23.25646"/><rect class="a" x="2667.06534" y="155.63324" width="46.51296" height="441.42751" rx="23.25646"/><rect class="a" x="2725.19886" y="231.73669" width="46.51296" height="293.00292" rx="23.25646"/><rect class="a" x="2787.36494" y="252.75856" width="46.51296" height="247.84099" rx="23.25646"/><rect class="a" x="2846.54564" y="204.17256" width="46.51296" height="363.69094" rx="23.25646"/><rect class="a" x="2904.96936" y="276.98155" width="46.51297" height="183.93088" rx="23.25646"/><rect class="a" x="2967.89045" y="311.78267" width="46.51297" height="124.8601" rx="23.25646"/><rect class="a" x="3026.05701" y="163.83718" width="46.51297" height="433.61375" rx="23.25646"/><rect class="a" x="3085.15645" y="9.38588" width="46.51297" height="737.7211" rx="23.25646"/><rect class="a" x="3142.68289" y="311.78267" width="46.51297" height="131.17838" rx="23.25646"/><rect class="a" x="3199.0327" y="336.01162" width="46.51297" height="80.67075" rx="23.25646"/><rect class="a" x="3260.39185" y="311.89486" width="46.51297" height="131.06619" rx="23.25646"/><rect class="a" x="3381.10612" y="311.89486" width="46.51296" height="132.83809" rx="23.25646"/><rect class="a" x="3318.90516" y="267.02983" width="46.51297" height="222.62787" rx="23.25646"/><rect class="a" x="3436.61963" y="267.02984" width="46.51297" height="222.62787" rx="23.25646"/><rect class="a" x="3498.79357" y="231.73669" width="46.51296" height="293.00292" rx="23.25646"/><rect class="a" x="3557.34945" y="17.46084" width="46.51296" height="759.76615" rx="23.25646"/><rect class="a" x="3615.80358" y="36.71189" width="46.51296" height="682.26796" rx="23.25646"/><rect class="a" x="3678.62741" y="236.64618" width="46.51297" height="288.09343" rx="23.25646"/><rect class="a" x="3732.69447" y="160.67478" width="46.51297" height="434.57043" rx="23.25646"/><rect class="a" x="3795.67484" y="98.13157" width="46.51297" height="559.56406" rx="23.25646"/><rect class="a" x="3854.16844" y="231.67385" width="46.51297" height="293.06574" rx="23.25646"/><rect class="a" x="3912.63441" y="267.33904" width="46.51296" height="222.31867" rx="23.25646"/><rect class="a" x="3975.42246" y="338.163" width="46.51296" height="80.67075" rx="23.25646"/><rect class="a" x="4029.64696" y="311.78267" width="46.51296" height="132.95029" rx="23.25646"/></svg>